<svg version="1.2" xmlns="http://www.w3.org/2000/svg" viewBox="0 0 1000 1000" width="500" height="500">
	<style>
		.s0 { fill: #4a4a3d } 
		.s1 { fill: #bfbf56 } 
		.s2 { fill: #ffff00 } 
		.s3 { fill: #f6ff00 } 
	</style>
	<path id="Shape 4" fill-rule="evenodd" class="s0" d="m499.5 645c-270.14 0-488.5-65.04-488.5-145.5 0-80.46 218.36-145.5 488.5-145.5 270.14 0 488.5 65.04 488.5 145.5 0 80.46-218.36 145.5-488.5 145.5z"/>
	<path id="Shape 1" fill-rule="evenodd" class="s1" d="m98.9 529.9l719.2 15.6-719.2 15.6z"/>
	<path id="Shape 2" fill-rule="evenodd" class="s2" d="m369 408.91l-1.57-25.85 24.09-9.47 16.46 19.98-13.92 21.83z"/>
	<path id="Shape 3" fill-rule="evenodd" class="s2" d="m675 441.91l-42.77 16.87-29.27-35.47 24.69-38.79 44.52 11.49z"/>
	<path id="Hemsida av Filip Bergander - Gen" class="s3" aria-label="Hemsida av Filip Bergander - Genom programmet Photopea"  d="m110.2 511v-30.3c0-2.1-0.1-2.1-2.6-2.1h-0.2v12.5l0.2 1.1h-8.6l0.2-1.1v-10.4c0-2.1-0.1-2.1-2.6-2.1h-0.2v32.4h0.2c2.5 0 2.6 0 2.6-2.1v-13l-0.2-1.1h8.6l-0.2 1.1v13c0 2.1 0 2.1 2.6 2.1zm17.6-2.7c-1.8 0.4-3.4 0.5-5.3 0.5-3.6 0-3.6-2.2-3.6-8.5l-0.2-1.1 9.2-0.3-0.2-2.4c0-6.4 0-10-5.2-10-6.2 0-6.2 3.7-6.2 12.7 0 8.9 0 12.1 6.2 12.1 1.9 0 3.4-0.3 5.3-0.7zm-2.4-11.6h-6.4l0.1-1.1c0-4.4 0-6.7 3.4-6.7 2.4 0 2.6 2.3 2.6 6.7zm25.7 12.2c0 2 0 2 2.7 2v-11.9c0-11.2-0.1-12.6-5.7-12.6l-4.8 1.9c-0.8-1-2.6-1.9-4.8-1.9l-4.1 1.7c0-1.3 0-1.3-2.6-1.3v22.1c0 2 0 2 2.6 2v-19.4l-0.1-1.1 4.2-1.6c3.3 0 2.9 3.6 2.9 10.1l0.1 10c0 2 0 2 2.6 2v-11.9-7.6l-0.2-1.2 4.2-1.4c3 0 3 1.3 3 10.1zm8.3 1.6c1.7 0.2 3.7 0.7 5.4 0.7 5 0 5.2-4.7 5.2-8.4 0-2.3-2.4-4.1-4.8-6-1.9-1.5-3.6-3.1-3.6-4.5 0-2 0.1-3.5 3.1-3.5l1.9 0.3c1.2 0.2 2.2 0 2.2-1.9l-4.2-0.7c-5.4 0-5.4 2.7-5.4 6.1 0 2.8 2.5 4.9 4.9 6.8 1.8 1.3 3.2 2.5 3.2 3.8 0.1 2.8-0.3 5.4-2.5 5.4-1.7 0-3.7-0.4-5.4-0.5zm15.3-27.8c1.1 0 2.1-1 2.1-2.1 0-1.1-1-2-2.1-2-1.1 0-2.1 0.9-2.1 2 0 1.1 1 2.1 2.1 2.1zm-1.3 26.4c0 2.1 0 2.1 2.6 2.1v-22.3c0-2.1 0-2.1-2.6-2.1zm18.4-0.5c0 2.4 0 2.4 2.6 2.4v-30.9c0-2 0-2-2.6-2v9.7l-3.3-1.3c-6.1 0-6.2 3.6-6.2 12.5 0 8.9 0 12.3 5.9 12.3zm0.2-1.7l-3.7 2c-3.3 0-3.3-2.8-3.3-10.4 0-6.2 0.1-9.6 3.3-9.6l3.7 1.2-0.2 1.1v14.6zm15.7-11.7h-0.2c-4 0-8.1 0.6-8.1 4.8 0 10.1 0 11.3 3.8 11.3 1.6 0 2.7-1.7 4.1-2.6 0 2.3 0.1 2.3 2.8 2.3v-18.7c0-4.3 0-5.8-5.1-5.8l-4.5 0.8c0 1.6 0.7 2 1.6 2 0.2 0 0.5 0 0.7-0.1l2.2-0.4c2.2 0 2.5 0.3 2.5 2.7 0 0.3 0 0.5 0 0.8v1.7zm-0.2 11.6c-1.5 0.8-2.7 2.2-4.3 2.2-1 0-1.1 0-1.1-9.3 0-1.7 2.3-2 5.2-2h0.2l-0.2 1.2v6.8zm24.2-11.6h-0.2c-3.9 0-8.1 0.7-8.1 4.8 0 10.1 0 11.4 3.8 11.4 1.7 0 2.8-1.8 4.2-2.6 0 2.2 0.1 2.2 2.7 2.2v-18.6c0-4.4 0-5.8-5-5.8l-4.5 0.7c0 1.6 0.7 2.1 1.5 2.1 0.2 0 0.5-0.1 0.7-0.1l2.3-0.5c2.2 0 2.4 0.4 2.4 2.8 0 0.2 0 0.5 0 0.8v1.7zm-0.1 11.6c-1.5 0.7-2.7 2.1-4.4 2.1-1 0-1.1 0-1.1-9.3 0-1.7 2.3-1.9 5.3-1.9h0.2l-0.2 1.1v6.9zm10.1 4.2c0.1 0 3.9 0 3.9 0 4.1-19.7 4.4-22.6 4.4-23.3 0-0.9-0.4-0.9-2.3-0.9l-3.7 20.6h-0.6l-3.3-18.5c-0.4-2.1-0.4-2.1-3-2.1zm23.9 0v-15.1l-0.2-1.1h8.4v-2.6h-8.4l0.2-1.1v-9l-0.2-1.1h9.1v-2.4h-11.9v30.4c0 2 0.1 2 2.6 2zm14.3-28.3c1.1 0 2-0.9 2-2 0-1.2-0.9-2.1-2-2.1-1.1 0-2.1 0.9-2.1 2.1 0 1.1 1 2 2.1 2zm-1.3 26.4c0 2.1 0 2.1 2.6 2.1v-22.3c0-2 0-2-2.6-2zm9.6 0c0 2 0 2 2.7 2v-31c0-2.1-0.1-2.1-2.7-2.1zm9.7-26.4c1.1 0 2-0.9 2-2.1 0-1.1-0.9-2-2-2-1.1 0-2.1 0.9-2.1 2 0 1.2 1 2.1 2.1 2.1zm-1.3 26.4c0 2.1 0 2.1 2.6 2.1v-22.3c0-2.1 0-2.1-2.6-2.1zm8.2 8.9c0 2 0 2 2.6 2v-10.7l3.4 2c5.8 0 6.3-3.3 6.3-12.2 0-8.6-0.4-12.6-6.1-12.6l-3.6 1.3c0-0.9-0.1-0.9-2.6-0.9zm2.4-11.1l0.2-1.1v-6.8-7.8l-0.2-1.1 3.6-1.2c3.2 0 3.7 3.6 3.7 10.1 0 7.2-0.5 10-3.8 10zm29.1 4.4c8.2 0 8.3-3.7 8.3-9.1 0-3.7 0-7.5-2.8-9 1.4-1.3 1.4-3.2 1.4-6.4 0-5.4 0-8.8-7.8-8.8l-4.7 0.5v32.5zm-3-19.2l0.2-1.1v-9.3l-0.2-1.1h1.6c5.4 0 5.4 1.7 5.4 6.2 0 4.4 0 5.3-5.4 5.3zm0 16.6l0.2-1.1v-11.8l-0.2-1.1h3.4c5 0 4.9 2.1 4.9 7.5 0 4.5 0 6.5-5.3 6.5zm26.7-0.5c-1.8 0.4-3.4 0.6-5.3 0.6-3.6 0-3.6-2.3-3.6-8.6l-0.2-1.1 9.2-0.2-0.2-2.4c0-6.5 0-10-5.2-10-6.2 0-6.2 3.7-6.2 12.6 0 8.9 0 12.2 6.2 12.2 1.9 0 3.4-0.4 5.3-0.8zm-2.4-11.5h-6.4l0.2-1.2c-0.1-4.3-0.1-6.7 3.3-6.7 2.4 0 2.6 2.4 2.6 6.7zm7.4 12.2c0 2.1 0 2.1 2.7 2.1v-18.9l-0.3-1.1 3.9-2.1c2.2 0 2.2 0 2.2-2.1-0.6-0.1-1.4-0.3-2.2-0.3l-3.6 2.1v-0.4c0-1.4 0-1.4-2.7-1.4zm18.6 11.1c5.5 0 6.1-1.7 6.1-6 0-4.7-1.1-5.2-6-5.2-4.3 0-4.5-0.1-4.5-1.3 0-2.6-0.3-3 4-3 5.3 0 5.7-2.3 5.7-7 0-6.6 0-7-1-8.8 2.3 0 2.3 0 2.3-2.2h-7c-6.2 0-6.6 2.5-6.6 8.8 0 5.5 0.8 6.3 2.3 7.4-1.5 0.7-2.3 1.7-2.3 4.7 0 3.9 0.1 3.9 7.1 3.9 3.4 0 3.5 1 3.5 2.7 0 2.3-0.1 3.5-3.6 3.5l-4.3 0.4c0 2 0 2.1 2.3 2.1zm-0.4-17.9c-3.5 0-4-2.2-4-6.8 0-5.5 0.5-6.4 4-6.4 3.4 0 3.2 2 3.2 7.2 0 4.6-0.1 6-3.2 6zm19.6-7h-0.2c-3.9 0-8.1 0.7-8.1 4.8 0 10.2 0 11.4 3.8 11.4 1.6 0 2.7-1.7 4.1-2.6 0 2.3 0.1 2.3 2.8 2.3v-18.7c0-4.4 0-5.8-5.1-5.8l-4.5 0.8c0 1.5 0.7 2 1.6 2 0.2 0 0.5-0.1 0.7-0.1l2.2-0.5c2.3 0 2.5 0.4 2.5 2.8 0 0.3 0 0.5 0 0.8v1.7zm-0.2 11.6c-1.4 0.7-2.7 2.2-4.3 2.2-1 0-1.1 0-1.1-9.3 0-1.7 2.3-2 5.3-2h0.1l-0.1 1.2v6.8zm18 2.2c0 2 0 2 2.7 2v-11.9c0-10.6 0-12.6-5.7-12.6l-4 1.7c0-1.3 0-1.3-2.7-1.3v22.1c0 2 0 2 2.7 2v-19.4l-0.2-1.1 4.4-1.6c2.8 0 2.8 1.4 2.8 10.1zm16.3-0.3c0 2.4 0 2.4 2.6 2.4v-30.9c0-2.1 0-2.1-2.6-2.1v9.8l-3.3-1.3c-6 0-6.1 3.6-6.1 12.5 0 8.9 0 12.3 5.9 12.3zm0.1-1.7l-3.7 2c-3.3 0-3.2-2.9-3.2-10.4 0-6.2 0-9.6 3.2-9.6l3.7 1.2-0.1 1.1v14.6zm18.8 1.3c-1.7 0.4-3.3 0.6-5.2 0.6-3.7 0-3.7-2.3-3.7-8.6l-0.1-1.1 9.1-0.2-0.1-2.4c0-6.5 0-10-5.2-10-6.3 0-6.3 3.7-6.3 12.6 0 8.9 0 12.2 6.3 12.2 1.9 0 3.4-0.4 5.2-0.8zm-2.4-11.5h-6.4l0.2-1.1c0-4.4 0-6.7 3.4-6.7 2.3 0 2.6 2.3 2.6 6.6zm7.4 12.2c0 2.1 0 2.1 2.6 2.1v-18.9l-0.2-1.1 3.8-2.1c2.3 0 2.3 0 2.3-2.1-0.7-0.1-1.4-0.3-2.3-0.3l-3.6 2.2v-0.5c0-1.4 0-1.4-2.6-1.4zm30.6-11.4v-2.3h-9.6v2.3zm25.3 10.8c-1.2 0.1-2.4 0.4-3.6 0.4-4.9 0-4.9-6.4-4.9-14.2 0-7.8 0-13.9 4.9-13.9l3.1 0.3c1.3 0.1 2.3 0 2.3-2l-5.4-0.9c-7.7 0-7.7 7.2-7.7 16.5 0 9.3 0 16.8 7.7 16.8 2.1 0 4.2-0.5 6.3-0.8v-15.9h-0.8c-2 0-2 0-2 2.6v10zm19-0.1c-1.7 0.4-3.4 0.6-5.3 0.6-3.6 0-3.6-2.3-3.6-8.6l-0.2-1.1 9.2-0.2-0.2-2.4c0-6.5 0-10-5.2-10-6.2 0-6.2 3.7-6.2 12.6 0 8.9 0 12.2 6.2 12.2 1.9 0 3.5-0.4 5.3-0.8zm-2.4-11.5h-6.4l0.2-1.1c-0.1-4.4-0.1-6.7 3.3-6.7 2.4 0 2.7 2.3 2.7 6.6zm17 12.2c0 2.1 0 2.1 2.7 2.1v-12c0-10.5 0-12.5-5.7-12.5l-4 1.7c0-1.4 0-1.4-2.7-1.4v22.1c0 2.1 0 2.1 2.7 2.1v-19.4l-0.2-1.1 4.4-1.6c2.8 0 2.8 1.3 2.8 10.1zm14 2.4c6.2 0 6.2-3.6 6.2-12.6 0-8.9 0-12.2-6.2-12.2-6.1 0-6.1 3.3-6.1 12.2 0 9 0 12.6 6.1 12.6zm0-2.4c-3.6 0-3.5-3.1-3.5-10.7 0-6.7 0.1-9.4 3.5-9.4 3.7 0 3.5 3.1 3.5 11 0 6.4-0.1 9.1-3.5 9.1zm30.6 0c0 2 0 2 2.7 2v-11.9c0-11.2-0.1-12.5-5.7-12.5l-4.8 1.8c-0.8-0.9-2.6-1.8-4.8-1.8l-4 1.6c0-1.3 0-1.3-2.7-1.3v22.1c0 2 0 2 2.7 2v-19.4l-0.2-1.1 4.2-1.6c3.3 0 2.9 3.6 2.9 10.1l0.1 10c0 2 0 2 2.6 2v-11.9-7.6l-0.2-1.2 4.2-1.4c3 0 3 1.3 3 10.1zm15.5 9c0 2.1 0 2.1 2.6 2.1v-10.8l3.4 2.1c5.9 0 6.4-3.4 6.4-12.3 0-8.6-0.5-12.5-6.2-12.5l-3.6 1.2c0-0.9 0-0.9-2.6-0.9zm2.4-11l0.2-1.1v-6.8-7.8l-0.1-1.2 3.5-1.1c3.3 0 3.7 3.6 3.7 10.1 0 7.2-0.4 9.9-3.8 9.9zm15.8 2.1c0 2 0 2 2.7 2v-18.8l-0.2-1.2 3.8-2.1c2.2 0 2.2 0 2.2-2-0.6-0.2-1.4-0.4-2.2-0.4l-3.6 2.2v-0.5c0-1.3 0-1.3-2.7-1.3zm17.7 2.3c6.2 0 6.2-3.6 6.2-12.5 0-8.9 0-12.3-6.2-12.3-6.1 0-6.1 3.4-6.1 12.3 0 9 0 12.5 6.1 12.5zm0-2.3c-3.6 0-3.5-3.1-3.5-10.7 0-6.8 0.1-9.4 3.5-9.4 3.7 0 3.5 3 3.5 11 0 6.4-0.1 9.1-3.5 9.1zm16.9 11c5.5 0 6.2-1.7 6.2-5.9 0-4.8-1.2-5.3-6-5.3-4.3 0-4.6-0.1-4.6-1.2 0-2.7-0.2-3.1 4-3.1 5.3 0 5.7-2.2 5.7-6.9 0-6.7 0-7-1-8.8 2.3 0 2.3 0 2.3-2.3h-7c-6.1 0-6.6 2.6-6.6 8.8 0 5.5 0.8 6.3 2.3 7.4-1.4 0.7-2.3 1.8-2.3 4.7 0 3.9 0.2 3.9 7.2 3.9 3.3 0 3.4 1.1 3.4 2.8 0 2.3-0.1 3.5-3.6 3.5l-4.2 0.3c0 2.1 0 2.1 2.2 2.1zm-0.4-17.8c-3.5 0-3.9-2.2-3.9-6.9 0-5.5 0.4-6.4 3.9-6.4 3.4 0 3.2 2.1 3.2 7.3 0 4.6-0.1 6-3.2 6zm11.8 6.8c0 2 0 2 2.7 2v-18.8l-0.3-1.2 3.9-2.1c2.2 0 2.2 0 2.2-2-0.6-0.2-1.4-0.4-2.2-0.4l-3.6 2.2v-0.5c0-1.3 0-1.3-2.7-1.3zm19.8-13.8h-0.1c-4 0-8.1 0.7-8.1 4.8 0 10.1 0 11.3 3.7 11.3 1.7 0 2.8-1.7 4.2-2.5 0 2.2 0.1 2.2 2.7 2.2v-18.6c0-4.4 0-5.8-5-5.8l-4.5 0.7c0 1.6 0.7 2 1.6 2 0.1 0 0.4 0 0.6 0l2.3-0.5c2.2 0 2.5 0.4 2.5 2.7 0 0.3 0 0.6 0 0.9v1.7zm-0.2 11.6c-1.5 0.7-2.7 2.1-4.4 2.1-1 0-1.1 0-1.1-9.3 0-1.7 2.3-1.9 5.3-1.9h0.2l-0.2 1.1v6.9zm26.6 2.1c0 2.1 0 2.1 2.7 2.1v-12c0-11.1 0-12.5-5.7-12.5l-4.8 1.9c-0.8-1-2.5-1.9-4.8-1.9l-4 1.7c0-1.4 0-1.4-2.7-1.4v22.1c0 2.1 0 2.1 2.7 2.1v-19.4l-0.2-1.1 4.2-1.6c3.3 0 2.9 3.6 3 10.1v9.9c0 2.1 0 2.1 2.6 2.1v-12-7.6l-0.2-1.1 4.2-1.4c3 0 3 1.3 3 10.1zm27 0c0 2 0 2 2.7 2v-11.9c0-11.2 0-12.5-5.7-12.5l-4.8 1.8c-0.8-0.9-2.5-1.8-4.8-1.8l-4 1.6c0-1.3 0-1.3-2.7-1.3v22.1c0 2 0 2 2.7 2v-19.4l-0.2-1.1 4.2-1.6c3.3 0 2.9 3.6 3 10.1v10c0 2 0 2 2.6 2v-11.9-7.6l-0.2-1.2 4.2-1.4c3 0 3 1.3 3 10.1zm18.8-0.7c-1.7 0.5-3.4 0.6-5.3 0.6-3.6 0-3.6-2.2-3.6-8.5l-0.2-1.1 9.2-0.3-0.2-2.4c0-6.4 0-10-5.2-10-6.2 0-6.2 3.7-6.2 12.7 0 8.9 0 12.1 6.2 12.1 1.9 0 3.5-0.4 5.3-0.8zm-2.4-11.5h-6.4l0.2-1.1c-0.1-4.4-0.1-6.7 3.3-6.7 2.4 0 2.7 2.3 2.7 6.7zm14.7 14.2v-2.1h-3.1c-1.8 0-1.8-2.1-1.8-8.1v-10.4l-0.1-1.1h1.9c2.2 0 2.2-0.3 2.2-2.4h-4.1l0.1-1.5c0-2.1 0-2.1-2.6-2.1v2l0.2 1.6h-2v2.4h2l-0.2 1.1v10.4c0 8.1 0 10.4 4.4 10.4zm12.5 0c2.5 0 2.6 0 2.6-2v-12.2l-0.2-1.1h3.4c8.3 0 8.3-3.5 8.3-8.8 0-5.4 0-8.8-8.3-8.8l-6 0.5v32.4zm2.4-17.9l0.2-1.1v-10.2l-0.2-1.1h3.4c5.4 0 5.4 1.7 5.4 6.2 0 4.4 0 6.2-5.4 6.2zm27.6 15.9c0 2 0 2 2.7 2v-11.9c0-8.9 0-12.5-5.5-12.5l-4.3 1.6v-8c0-2.1 0-2.1-2.6-2.1v32.9c2.6 0 2.6 0 2.6-2v-17.4l-0.1-1.1 4.4-1.6c2.8 0 2.8 3.6 2.8 10.1zm31 2.1v-2.1h-3c-1.9 0-1.8-2.1-1.8-8.2v-10.3l-0.2-1.5h2c2.1 0 2.1-0.3 2.1-2.4h-4.1l0.2-1.2c0-2 0-2-2.7-2v2l0.2 1.2h-10.7-0.4c-6 0-6 3.3-6 12.3 0 9 0 12.5 6 12.5 5.9 0 5.8-3.6 5.8-12.5 0-4.7 0-7.9-0.9-9.9h6.2l-0.2 1.5v10.3c0 8.1 0 10.5 4.4 10.5zm-18.5-2c-3.6 0-3.2-3.1-3.2-10.7 0-6.8-0.2-9.4 3.2-9.4 3.7 0 3.3 3 3.3 11 0 6.4 0.1 9.1-3.3 9.1zm27.3 2.3c6.1 0 6.1-3.6 6.1-12.5 0-8.9 0-12.3-6.1-12.3-6.2 0-6.2 3.4-6.2 12.3 0 9 0 12.5 6.2 12.5zm0-2.3c-3.7 0-3.5-3.1-3.5-10.7 0-6.8 0-9.4 3.5-9.4 3.7 0 3.4 3 3.4 11 0 6.4-0.1 9.1-3.4 9.1zm11 9c0 2 0 2 2.6 2v-10.7l3.5 2c5.8 0 6.3-3.3 6.3-12.2 0-8.6-0.4-12.6-6.2-12.6l-3.6 1.3c0-0.9 0-0.9-2.6-0.9zm2.5-11.1l0.2-1.1v-6.8-7.8l-0.2-1.1 3.5-1.2c3.3 0 3.8 3.6 3.8 10.1 0 7.2-0.5 10-3.8 10zm25.8 1.3c-1.7 0.4-3.3 0.6-5.2 0.6-3.7 0-3.7-2.3-3.7-8.6l-0.2-1.1 9.2-0.2-0.2-2.4c0-6.5 0-10-5.1-10-6.3 0-6.3 3.7-6.3 12.6 0 8.9 0 12.2 6.3 12.2 1.9 0 3.4-0.4 5.2-0.8zm-2.4-11.5h-6.4l0.2-1.1c0-4.4 0-6.7 3.4-6.7 2.3 0 2.6 2.3 2.6 6.6zm15.2-1.6h-0.2c-4 0-8.1 0.7-8.1 4.9 0 10.1 0 11.3 3.8 11.3 1.6 0 2.7-1.7 4.1-2.6 0 2.3 0.1 2.3 2.8 2.3v-18.7c0-4.4 0-5.8-5.1-5.8l-4.5 0.8c0 1.5 0.7 2 1.6 2 0.2 0 0.4-0.1 0.7-0.1l2.2-0.4c2.2 0 2.5 0.3 2.5 2.7 0 0.3 0 0.5 0 0.8v1.7zm-0.2 11.6c-1.5 0.7-2.7 2.2-4.4 2.2-0.9 0-1 0-1-9.3 0-1.7 2.3-2 5.2-2h0.2l-0.2 1.2v6.8z"/>
</svg>